<svg xmlns="http://www.w3.org/2000/svg" width="60" height="19.249" viewBox="0 0 60 19.249">
  <path id="Path_140" data-name="Path 140" d="M634.528,100.853q-.411,1.606-.872,3.212-2.6,0-3.6,1.021a8.87,8.87,0,0,0-1.482,3.473l-2.191,8.18h-4.408l2.826-10.607a7.347,7.347,0,0,1,2.328-4.009,7.814,7.814,0,0,1,5.043-1.444A14.136,14.136,0,0,1,634.528,100.853Zm14.344,5.64a7.741,7.741,0,0,1-.274,1.955l-2.228,8.292h-4.146l.535-1.992a6.558,6.558,0,0,1-4.955,2.241,4.535,4.535,0,0,1-3.555-1.606,6.009,6.009,0,0,1-1.413-4.121,10.986,10.986,0,0,1,2.6-7.221,8.613,8.613,0,0,1,6.91-3.362,6.764,6.764,0,0,1,4.725,1.631A5.392,5.392,0,0,1,648.872,106.493Zm-4.482.436q0-2.552-2.3-2.552a4.07,4.07,0,0,0-3.486,2.191,7.636,7.636,0,0,0-1.257,4.184,2.949,2.949,0,0,0,.542,1.849,1.813,1.813,0,0,0,1.525.7q1.918,0,3.523-2.279A7.1,7.1,0,0,0,644.39,106.929Zm21.054-.187a10.455,10.455,0,0,1-2.627,7.1,8.761,8.761,0,0,1-6.835,3.15,6.7,6.7,0,0,1-4.7-1.619,5.506,5.506,0,0,1-1.774-4.271,12.464,12.464,0,0,1,.461-3.162l2.7-10.2h4.408l-1.1,4.109a6.944,6.944,0,0,1,3.984-1.17,5.2,5.2,0,0,1,3.984,1.594A6.281,6.281,0,0,1,665.444,106.742Zm-4.507.287q0-2.652-2.328-2.652a4.093,4.093,0,0,0-3.548,2.191,7.929,7.929,0,0,0-1.17,4.233,2.492,2.492,0,0,0,.666,1.824,2.422,2.422,0,0,0,1.812.678,3.884,3.884,0,0,0,3.361-2.117A7.578,7.578,0,0,0,660.937,107.028Zm21.042-.535a7.742,7.742,0,0,1-.274,1.955l-2.229,8.292H675.33l.535-1.992a6.559,6.559,0,0,1-4.955,2.241,4.535,4.535,0,0,1-3.555-1.606,6.009,6.009,0,0,1-1.413-4.121,10.986,10.986,0,0,1,2.6-7.221,8.613,8.613,0,0,1,6.91-3.362,6.765,6.765,0,0,1,4.725,1.631A5.392,5.392,0,0,1,681.978,106.493Zm-4.482.436q0-2.552-2.3-2.552a4.07,4.07,0,0,0-3.486,2.191,7.635,7.635,0,0,0-1.257,4.184,2.949,2.949,0,0,0,.542,1.849,1.813,1.813,0,0,0,1.525.7q1.917,0,3.523-2.279A7.094,7.094,0,0,0,677.5,106.929Z" transform="translate(-621.978 -97.74)" fill="#fff"/>
</svg>
