<svg xmlns="http://www.w3.org/2000/svg" width="128.922" height="19.737" viewBox="0 0 128.922 19.737"><path d="M9232.056,7077.99l-1.159-.591c-46.7-23.775-124.872-3.576-125.656-3.37l-.926-2.414c13.49-6.928,38.912-10.344,75.484-10.223,9.776.039,19.083.342,27,.716-38.6-3.464-95.866,1.491-96.578,1.554l-1.295.114-.229-2.59,1.295-.114c.222-.02,22.448-1.962,48.308-2.606,34.8-.868,59.273.905,72.718,5.266l-.521,2.531c-.4-.036-17.4-1.569-39.21-2.08,14.435,1.439,28.638,4.711,40.787,10.9l1.159.59Z" transform="translate(-9104.314 -7058.253)" fill="#ffc735"/></svg>