<svg xmlns="http://www.w3.org/2000/svg" xmlns:xlink="http://www.w3.org/1999/xlink" width="1280" height="236.117" viewBox="0 0 1280 236.117"><defs><clipPath id="a"><rect width="1280" height="236.117" transform="translate(0 0)" fill="none"/></clipPath><clipPath id="b"><rect width="1675.354" height="1257.563" fill="none"/></clipPath></defs><g transform="translate(-8305 -4330)"><g transform="translate(8305 4330)"><g transform="translate(0 0)" clip-path="url(#a)"><g transform="translate(-50.387 -994.498)"><g clip-path="url(#b)"><g transform="translate(7.947 -4.001)"><path d="M10388.855,3684.042a36.035,36.035,0,1,0-36.035,36.048A36.038,36.038,0,0,0,10388.855,3684.042Zm-36.035-79.3a79.3,79.3,0,1,1-79.277,79.3A79.287,79.287,0,0,1,10352.82,3604.739Z" transform="translate(-8772.455 -3184.46)" fill="#fd6234" fill-rule="evenodd"/><path d="M10370.906,3725.4a21.6,21.6,0,1,1,21.594-21.6A21.6,21.6,0,0,1,10370.906,3725.4Z" transform="translate(-8792.084 -3204.523)" fill="#c84200" fill-rule="evenodd"/><path d="M8591.607,4695.762a21.6,21.6,0,0,1,21.594-21.6h129.563a21.6,21.6,0,0,1,0,43.2H8613.2A21.6,21.6,0,0,1,8591.607,4695.762Z" transform="translate(-8336.798 -3461.462)" fill="#ffc735" fill-rule="evenodd"/><path d="M8777.352,3948.065a79.242,79.242,0,0,1-79.18,79.3H8554.211a79.3,79.3,0,0,1,0-158.607h143.961A79.241,79.241,0,0,1,8777.352,3948.065Zm-79.18,36.048a36.047,36.047,0,0,0,0-72.095H8554.211a36.047,36.047,0,0,0,0,72.095Z" transform="translate(-8306.608 -3252.848)" fill="#b4d51e" fill-rule="evenodd"/><path d="M8365.129,4480.221a21.6,21.6,0,0,0,21.6,21.6h66.957a78.972,78.972,0,0,0,57.6-24.842,78.978,78.978,0,0,0,57.6,24.842h66.242a79.2,79.2,0,0,0,79.2-79.2,21.6,21.6,0,1,0-43.2,0,36,36,0,0,1-36,36h-66.242a36,36,0,0,1-36-36V4277.178a77.763,77.763,0,0,0-77.762-77.76v43.2a34.563,34.563,0,0,1,34.563,34.561v145.441a36,36,0,0,1-36,36H8386.73A21.6,21.6,0,0,0,8365.129,4480.221Z" transform="translate(-8278.135 -3338.495)" fill="#b4d51e" fill-rule="evenodd"/><path d="M8715.852,4303.108a36.047,36.047,0,1,0-36.039-36.047,21.621,21.621,0,1,1-43.242,0,79.279,79.279,0,1,1,79.281,79.3,21.629,21.629,0,0,1,0-43.258Z" transform="translate(-8348.443 -3335.475)" fill="#e5e0d5"/><path d="M8648.838,3898.729a47.521,47.521,0,1,0-36.6-78.222,21.627,21.627,0,0,1-32.934-28.042,91.306,91.306,0,0,1,69.535-31.977c50.3,0,91.246,40.52,91.246,90.721s-40.945,90.721-91.246,90.721a21.6,21.6,0,1,1,0-43.2Z" transform="translate(-8332.269 -3224.803)" fill="#e5e0d5"/><path d="M9101.863,3160.375a35.992,35.992,0,1,0-50.961,0,21.6,21.6,0,0,1-30.578,30.5,79.183,79.183,0,1,1,112.117,0,21.6,21.6,0,0,1-30.578-30.5Z" transform="translate(-8441.829 -3042.292)" fill="#c84200" fill-rule="evenodd"/><path d="M9027.576,3195.457a21.6,21.6,0,1,1,0,30.547A21.59,21.59,0,0,1,9027.576,3195.457Z" transform="translate(-8448.088 -3076.809)" fill="#fd6234" fill-rule="evenodd"/><path d="M8479.145,4242.617a21.6,21.6,0,1,1,21.594-21.6A21.6,21.6,0,0,1,8479.145,4242.617Z" transform="translate(-8302.073 -3338.495)" fill="#fd6234" fill-rule="evenodd"/><path d="M8363.041,4323.7a36.035,36.035,0,1,0-36.035,36.045A36.041,36.041,0,0,0,8363.041,4323.7Zm-36.035-79.3a79.3,79.3,0,1,1-79.281,79.3A79.293,79.293,0,0,1,8327.006,4244.395Z" transform="translate(-8247.725 -3350.145)" fill="#ffc735" fill-rule="evenodd"/><path d="M8413.6,4085.248a44.6,44.6,0,0,0-44.52,44.689v83.609a21.545,21.545,0,1,1-43.09,0v-83.609c0-48.564,39.227-87.936,87.609-87.936Z" transform="translate(-8267.999 -3297.72)" fill="#e5e0d5"/><path d="M8347.586,4287.594a21.6,21.6,0,1,1,21.6-21.6A21.6,21.6,0,0,1,8347.586,4287.594Z" transform="translate(-8267.999 -3350.145)" fill="#fd6234" fill-rule="evenodd"/><path d="M8346.756,4365.051a21.6,21.6,0,1,1,21.594-21.6A21.6,21.6,0,0,1,8346.756,4365.051Z" transform="translate(-8267.783 -3370.207)" fill="#fd6234" fill-rule="evenodd"/><path d="M8352.2,3757.571a36.048,36.048,0,1,0-.937-72.09,21.629,21.629,0,1,1-.566-43.255,79.306,79.306,0,1,1,2.066,158.6,21.629,21.629,0,1,1-.562-43.254Z" transform="translate(-8268.863 -3194.168)" fill="#ffc735" fill-rule="evenodd"/><path d="M8474.428,3991.953a36.026,36.026,0,1,0,0,72.053,142.722,142.722,0,0,1,142.781,142.666,21.631,21.631,0,0,1-43.262,0,99.478,99.478,0,0,0-99.52-99.434,79.259,79.259,0,1,1,0-158.519,21.617,21.617,0,1,1,0,43.233Z" transform="translate(-8285.9 -3273.559)" fill="#ffc735" fill-rule="evenodd"/><path d="M8893.436,4473.353a36.037,36.037,0,0,0-72.074,0,21.621,21.621,0,0,1-43.242,0,79.28,79.28,0,0,1,158.559,0,21.621,21.621,0,0,1-43.242,0Z" transform="translate(-8385.109 -3388.978)" fill="#c84200" fill-rule="evenodd"/><path d="M8867.936,3974.485a99.347,99.347,0,0,0,99.332,99.361,21.6,21.6,0,0,1,0,43.2,142.54,142.54,0,0,1-142.52-142.561,21.594,21.594,0,1,1,43.188,0Z" transform="translate(-8397.188 -3274.637)" fill="#e5e0d5"/><path d="M9411.1,3094.991a144.264,144.264,0,0,0-144.242,144.284,21.637,21.637,0,1,1-43.273,0c0-103.592,83.957-187.57,187.516-187.57a21.643,21.643,0,0,1,0,43.286Z" transform="translate(-8500.493 -3041.214)" fill="#ffc735" fill-rule="evenodd"/><path d="M9700.84,3228.4a132.6,132.6,0,0,0-132.578-132.62,21.623,21.623,0,0,1,0-43.245c97.1,0,175.813,78.737,175.813,175.865a21.617,21.617,0,1,1-43.234,0Z" transform="translate(-8584.173 -3041.43)" fill="#b4d51e" fill-rule="evenodd"/><path d="M8800.947,3792.432a103.665,103.665,0,0,0-103.652-103.681,21.6,21.6,0,0,1,0-43.2,146.863,146.863,0,0,1,146.844,146.881,21.6,21.6,0,1,1-43.191,0Z" transform="translate(-8358.577 -3195.032)" fill="#ffc735" fill-rule="evenodd"/><path d="M8330.992,3819.85a21.594,21.594,0,1,1,21.871,21.317A21.59,21.59,0,0,1,8330.992,3819.85Z" transform="translate(-8269.295 -3234.51)" fill="#fd6234" fill-rule="evenodd"/><path d="M8658.164,4310.913a21.6,21.6,0,1,1,21.594-21.6A21.6,21.6,0,0,1,8658.164,4310.913Z" transform="translate(-8348.443 -3356.185)" fill="#fd6234" fill-rule="evenodd"/><path d="M8799.713,4514.97a21.6,21.6,0,1,1,21.594-21.6A21.6,21.6,0,0,1,8799.713,4514.97Z" transform="translate(-8385.109 -3409.04)" fill="#fd6234" fill-rule="evenodd"/><path d="M8385.891,4592.428a21.6,21.6,0,1,1,21.594-21.6A21.6,21.6,0,0,1,8385.891,4592.428Z" transform="translate(-8277.922 -3429.103)" fill="#fd6234" fill-rule="evenodd"/><path d="M8658.164,4388.374a21.6,21.6,0,1,1,21.594-21.6A21.6,21.6,0,0,1,8658.164,4388.374Z" transform="translate(-8348.443 -3376.249)" fill="#c84200" fill-rule="evenodd"/><path d="M8658.164,4466.663a21.6,21.6,0,1,1,21.594-21.6A21.6,21.6,0,0,1,8658.164,4466.663Z" transform="translate(-8348.443 -3396.528)" fill="#c84200" fill-rule="evenodd"/><path d="M8877.98,4524.965a21.6,21.6,0,1,1,21.594-21.6A21.6,21.6,0,0,1,8877.98,4524.965Z" transform="translate(-8405.384 -3411.63)" fill="#fd6234" fill-rule="evenodd"/><path d="M8877.98,4602.424a21.6,21.6,0,1,1,21.594-21.6A21.6,21.6,0,0,1,8877.98,4602.424Z" transform="translate(-8405.384 -3431.692)" fill="#fd6234" fill-rule="evenodd"/><path d="M8846.342,3996.085a21.6,21.6,0,1,1,21.594-21.6A21.6,21.6,0,0,1,8846.342,3996.085Z" transform="translate(-8397.188 -3274.637)" fill="#fd6234" fill-rule="evenodd"/><path d="M8496.633,3991.92a21.6,21.6,0,1,1,21.594-21.6A21.6,21.6,0,0,1,8496.633,3991.92Z" transform="translate(-8306.608 -3273.559)" fill="#fd6234" fill-rule="evenodd"/><path d="M9024.158,3944.735a36.035,36.035,0,1,0-36.035,36.048A36.04,36.04,0,0,0,9024.158,3944.735Zm-36.035-79.3a79.3,79.3,0,1,1-79.281,79.3A79.293,79.293,0,0,1,8988.123,3865.432Z" transform="translate(-8418.967 -3251.985)" fill="#ffc735" fill-rule="evenodd"/><path d="M9146.146,3381.473a21.612,21.612,0,0,0,21.625,21.6,36.02,36.02,0,0,1,36.039,36v144a36.021,36.021,0,0,1-36.039,36,21.6,21.6,0,1,0,0,43.2,79.106,79.106,0,0,0,57.664-24.842,79.124,79.124,0,0,0,57.672,24.842h66.316a79.246,79.246,0,0,0,79.293-79.2,21.625,21.625,0,0,0-43.25,0,36.022,36.022,0,0,1-36.043,36h-66.316a36.022,36.022,0,0,1-36.043-36v-144a79.249,79.249,0,0,0-79.293-79.2A21.612,21.612,0,0,0,9146.146,3381.473Z" transform="translate(-8480.438 -3121.034)" fill="#b4d51e" fill-rule="evenodd"/><path d="M9147.5,3640.812a21.618,21.618,0,0,0-21.625-21.609,36.026,36.026,0,0,1-36.035-36.019V3439.11a36.026,36.026,0,0,1,36.035-36.017,21.611,21.611,0,1,0,0-43.223,79.257,79.257,0,0,0-79.273,79.239v144.073q0,2.66.168,5.276a87.929,87.929,0,0,0-62.152,84.049v83.562a21.623,21.623,0,0,0,43.246,0v-83.562a44.68,44.68,0,0,1,33.5-43.253,79.2,79.2,0,0,0,64.508,33.168A21.62,21.62,0,0,0,9147.5,3640.812Z" transform="translate(-8438.594 -3121.034)" fill="#e5e0d5"/><path d="M9147.156,3752.939a36.047,36.047,0,1,0,36.035,36.046,21.623,21.623,0,1,1,43.246,0,79.281,79.281,0,1,1-79.281-79.3,21.628,21.628,0,0,1,0,43.257Z" transform="translate(-8460.16 -3211.643)" fill="#c84200" fill-rule="evenodd"/><path d="M9862.164,3936.407a36.037,36.037,0,1,1,36.039,36.047,21.628,21.628,0,0,0,0,43.257,79.3,79.3,0,1,0-79.285-79.3,21.623,21.623,0,1,0,43.246,0Z" transform="translate(-8654.698 -3249.829)" fill="#e5e0d5"/><path d="M9167.74,3752.884a21.6,21.6,0,1,1,21.594-21.6A21.6,21.6,0,0,1,9167.74,3752.884Z" transform="translate(-8480.438 -3211.643)" fill="#fd6234" fill-rule="evenodd"/><path d="M9167.74,3403.072a21.6,21.6,0,1,1,21.594-21.6A21.6,21.6,0,0,1,9167.74,3403.072Z" transform="translate(-8480.438 -3121.034)" fill="#fd6234" fill-rule="evenodd"/><path d="M9006.207,3908.633a21.6,21.6,0,1,1,21.594-21.6A21.6,21.6,0,0,1,9006.207,3908.633Z" transform="translate(-8438.594 -3251.985)" fill="#fd6234" fill-rule="evenodd"/><path d="M9007.873,3986.091a21.6,21.6,0,1,1,21.594-21.6A21.6,21.6,0,0,1,9007.873,3986.091Z" transform="translate(-8439.026 -3272.048)" fill="#c84200" fill-rule="evenodd"/><path d="M10133.326,3578.754a79.269,79.269,0,0,1-79.289,79.253H9909.869a79.253,79.253,0,1,1,0-158.506H9956v-45.392a79.274,79.274,0,0,1,79.293-79.253h144.164a36.032,36.032,0,0,0,36.047-36.024v-66.284a36.032,36.032,0,0,0-36.047-36.024,21.615,21.615,0,1,1,0-43.229,79.268,79.268,0,0,1,79.293,79.254v66.284a79.024,79.024,0,0,1-24.867,57.639,79.031,79.031,0,0,1,24.867,57.639v64.844a21.623,21.623,0,0,1-43.246,0v-64.844a36.032,36.032,0,0,0-36.047-36.023h-144.164a36.033,36.033,0,0,0-36.039,36.023V3499.5h54.781A79.269,79.269,0,0,1,10133.326,3578.754Zm-223.457-36.025a36.025,36.025,0,1,0,0,72.05h144.168a36.025,36.025,0,1,0,0-72.05Z" transform="translate(-8657.716 -3077.887)" fill="#b4d51e" fill-rule="evenodd"/><path d="M9789.85,3386.291a47.5,47.5,0,1,0-4.3-86.158,21.593,21.593,0,1,1-19.875-38.342,91.309,91.309,0,0,1,76.422-3.423c46.539,18.926,69.113,71.834,50.141,118.286s-72.172,68.541-118.711,49.614a21.591,21.591,0,1,1,16.324-39.978Z" transform="translate(-8637.878 -3092.99)" fill="#ffc735" fill-rule="evenodd"/><path d="M10223.473,3712.125a99.347,99.347,0,0,0,99.332,99.362,21.6,21.6,0,0,1,0,43.2,142.538,142.538,0,0,1-142.52-142.562,21.594,21.594,0,1,1,43.188,0Z" transform="translate(-8748.299 -3206.681)" fill="#ffc735" fill-rule="evenodd"/><path d="M10201.879,3732.063a21.6,21.6,0,1,1,21.594-21.6A21.6,21.6,0,0,1,10201.879,3732.063Z" transform="translate(-8748.299 -3206.25)" fill="#fd6234" fill-rule="evenodd"/><path d="M9105.76,3574.67a36.037,36.037,0,0,0-72.074,0,21.621,21.621,0,0,1-43.242,0,79.28,79.28,0,0,1,158.559,0,21.621,21.621,0,0,1-43.242,0Z" transform="translate(-8440.107 -3156.199)" fill="#ffc735" fill-rule="evenodd"/><path d="M9584.525,3635.471a36.035,36.035,0,0,0-72.07,0,21.623,21.623,0,0,1-43.246,0,79.284,79.284,0,0,1,158.566,0,21.625,21.625,0,0,1-43.25,0Z" transform="translate(-8564.116 -3171.948)" fill="#c84200" fill-rule="evenodd"/><path d="M8883.807,4630.211a99.348,99.348,0,0,0,99.336-99.359,21.594,21.594,0,1,1,43.188,0,142.542,142.542,0,0,1-142.523,142.561,21.6,21.6,0,0,1,0-43.2Z" transform="translate(-8406.89 -3418.748)" fill="#e5e0d5"/><path d="M9179.422,3935.758a115.314,115.314,0,0,0,115.3-115.332,21.619,21.619,0,1,1,43.238,0,158.559,158.559,0,0,1-158.535,158.582,21.625,21.625,0,0,1,0-43.25Z" transform="translate(-8483.452 -3234.726)" fill="#b4d51e" fill-rule="evenodd"/><path d="M9167.74,3616.291a21.6,21.6,0,1,1,21.594-21.6A21.6,21.6,0,0,1,9167.74,3616.291Z" transform="translate(-8480.438 -3176.262)" fill="#fd6234" fill-rule="evenodd"/><path d="M9371.736,3432.222a21.6,21.6,0,1,1,21.594-21.6A21.6,21.6,0,0,1,9371.736,3432.222Z" transform="translate(-8533.273 -3128.585)" fill="#fd6234" fill-rule="evenodd"/><path d="M9822.252,4036.119a21.594,21.594,0,1,0,21.594-21.6A21.6,21.6,0,0,0,9822.252,4036.119Z" transform="translate(-8655.561 -3290.602)" fill="#fd6234" fill-rule="evenodd"/><path d="M9744.814,4036.119a21.594,21.594,0,1,0,21.594-21.6A21.6,21.6,0,0,0,9744.814,4036.119Z" transform="translate(-8635.502 -3290.602)" fill="#fd6234" fill-rule="evenodd"/><path d="M10288.707,4625.088a79.239,79.239,0,0,1-79.281-79.2v-144a79.281,79.281,0,0,1,158.563,0v144A79.234,79.234,0,0,1,10288.707,4625.088Zm36.039-79.2v-144a36.037,36.037,0,0,0-72.074,0v144a36.037,36.037,0,0,0,72.074,0Z" transform="translate(-8755.846 -3370.424)" fill="#b4d51e" fill-rule="evenodd"/><path d="M10331.006,4309.149a79.243,79.243,0,0,1,79.4-79.086,21.57,21.57,0,1,0,0-43.139c-67.766,0-122.711,54.723-122.711,122.225a21.654,21.654,0,0,0,43.309,0Z" transform="translate(-8776.124 -3335.259)" fill="#e5e0d5"/><path d="M10330.885,4344.285a21.594,21.594,0,1,0-21.594,21.6A21.6,21.6,0,0,0,10330.885,4344.285Z" transform="translate(-8776.124 -3370.424)" fill="#fd6234" fill-rule="evenodd"/><path d="M10028.092,4560a36.048,36.048,0,1,0,36.035,36.049A36.041,36.041,0,0,0,10028.092,4560Zm-79.281,36.049a79.279,79.279,0,1,1,79.281,79.3A79.293,79.293,0,0,1,9948.811,4596.051Z" transform="translate(-8688.341 -3420.69)" fill="#ffc735" fill-rule="evenodd"/><path d="M9465,4435.124a21.633,21.633,0,0,1,21.605,21.654,36.05,36.05,0,0,0,36,36.094h144.035a36.051,36.051,0,0,0,36.008-36.094,21.6,21.6,0,1,1,43.207,0,79.355,79.355,0,0,1-33.031,64.52c5.078,18.629,22.176,32.209,43.117,32.209h83.535a21.655,21.655,0,0,1,0,43.311h-83.535c-39.078,0-72.648-25.1-83.867-60.818q-2.7.185-5.434.184H9522.611a79.309,79.309,0,0,1-79.215-79.4A21.631,21.631,0,0,1,9465,4435.124Z" transform="translate(-8557.43 -3399.548)" fill="#e5e0d5"/><path d="M9205.443,4086.979a79.238,79.238,0,0,1,79.277,79.2v144a79.279,79.279,0,0,1-158.559,0v-144A79.239,79.239,0,0,1,9205.443,4086.979Zm36.035,79.2a36.035,36.035,0,0,0-72.07,0v144a36.035,36.035,0,0,0,72.07,0Z" transform="translate(-8475.26 -3309.37)" fill="#b4d51e" fill-rule="evenodd"/><path d="M9464.99,4394.619a21.613,21.613,0,0,0,21.594-21.631,36.023,36.023,0,0,1,35.992-36.055h143.961a36.022,36.022,0,0,1,35.988,36.055,21.594,21.594,0,1,0,43.188,0,79.154,79.154,0,0,0-24.836-57.686,79.154,79.154,0,0,0,24.836-57.686v-66.336a79.243,79.243,0,0,0-79.176-79.316,21.632,21.632,0,0,0,0,43.264,36.021,36.021,0,0,1,35.988,36.053v66.336a36.022,36.022,0,0,1-35.988,36.055H9522.576a79.249,79.249,0,0,0-79.18,79.316A21.613,21.613,0,0,0,9464.99,4394.619Z" transform="translate(-8557.43 -3315.842)" fill="#b4d51e" fill-rule="evenodd"/><path d="M9836.352,4436.137a36.035,36.035,0,1,0,36.035-36.047,21.629,21.629,0,0,1,0-43.258,79.3,79.3,0,1,1-79.281,79.3,21.623,21.623,0,1,1,43.246,0Z" transform="translate(-8648.009 -3379.267)" fill="#c84200" fill-rule="evenodd"/><path d="M9562.881,4197.1a36.037,36.037,0,1,0-36.039,36.045,21.629,21.629,0,0,1,0,43.258,79.3,79.3,0,1,1,79.281-79.3,21.621,21.621,0,1,1-43.242,0Z" transform="translate(-8558.507 -3317.353)" fill="#c84200" fill-rule="evenodd"/><path d="M9156.117,4350.659a47.507,47.507,0,1,0-78.2,36.615,21.627,21.627,0,0,1-28.035,32.939,91.357,91.357,0,0,1-31.969-69.555c0-50.312,40.512-91.273,90.7-91.273s90.691,40.961,90.691,91.273a21.594,21.594,0,1,1-43.187,0Z" transform="translate(-8447.223 -3354.028)" fill="#fd6234" fill-rule="evenodd"/><path d="M9836.293,4455.892a21.594,21.594,0,1,1-21.594-21.6A21.6,21.6,0,0,1,9836.293,4455.892Z" transform="translate(-8648.009 -3399.331)" fill="#fd6234" fill-rule="evenodd"/><path d="M9486.584,4456.724a21.594,21.594,0,1,1-21.594-21.6A21.6,21.6,0,0,1,9486.584,4456.724Z" transform="translate(-8557.43 -3399.548)" fill="#fd6234" fill-rule="evenodd"/><path d="M9992,4616.638a21.594,21.594,0,1,1-21.594-21.6A21.6,21.6,0,0,1,9992,4616.638Z" transform="translate(-8688.341 -3440.969)" fill="#fd6234" fill-rule="evenodd"/><path d="M10070.266,4615.8a21.594,21.594,0,1,1-21.594-21.6A21.6,21.6,0,0,1,10070.266,4615.8Z" transform="translate(-8708.615 -3440.752)" fill="#fd6234" fill-rule="evenodd"/><path d="M9658.967,4478.382a36.046,36.046,0,0,0,0,72.092,21.63,21.63,0,0,1,0,43.26,79.305,79.305,0,0,1,0-158.609,21.629,21.629,0,0,1,0,43.258Z" transform="translate(-8592.799 -3399.548)" fill="#ffc735" fill-rule="evenodd"/><path d="M9713.66,3956.94c-27.477,0-50.477,22.8-50.477,51.839s23,51.841,50.477,51.841a21.6,21.6,0,1,1,0,43.2c-52.172,0-93.742-42.956-93.742-95.041s41.57-95.04,93.742-95.04a21.6,21.6,0,1,1,0,43.2Z" transform="translate(-8603.154 -3264.499)" fill="#ffc735" fill-rule="evenodd"/><path d="M9463.971,4316.826a99.476,99.476,0,0,0-99.406,99.545,79.234,79.234,0,1,1-158.469,0,21.609,21.609,0,1,1,43.219,0,36.016,36.016,0,1,0,72.031,0c0-78.879,63.855-142.826,142.625-142.826a21.641,21.641,0,0,1,0,43.281Z" transform="translate(-8495.962 -3357.695)" fill="#ffc735" fill-rule="evenodd"/><path d="M9231.854,4022.042a164.14,164.14,0,0,0,164.113-164.161,21.594,21.594,0,1,1,43.188,0c0,114.522-92.812,207.362-207.3,207.362a21.6,21.6,0,0,1,0-43.2Z" transform="translate(-8497.044 -3244.436)" fill="#e5e0d5"/><path d="M10034.588,3093.326a139.942,139.942,0,0,0-139.922,139.963,21.637,21.637,0,1,1-43.273,0c0-101.206,82.02-183.25,183.2-183.25a21.644,21.644,0,0,1,0,43.287Z" transform="translate(-8663.112 -3040.782)" fill="#e5e0d5"/><path d="M10005.623,4392.785a99.346,99.346,0,0,0-99.332-99.361,21.6,21.6,0,0,1,0-43.2,142.54,142.54,0,0,1,142.52,142.561,21.594,21.594,0,1,1-43.187,0Z" transform="translate(-8671.736 -3351.656)" fill="#fd6234" fill-rule="evenodd"/><path d="M8292.578,4530.852a99.344,99.344,0,0,0,99.332,99.359,21.6,21.6,0,0,1,0,43.2,142.541,142.541,0,0,1-142.52-142.561,21.594,21.594,0,1,1,43.188,0Z" transform="translate(-8248.157 -3418.748)" fill="#b4d51e" fill-rule="evenodd"/><path d="M9038.063,4227.557a66.13,66.13,0,0,0-66.117,66.139,21.559,21.559,0,1,1-43.117,0,109.251,109.251,0,0,1,109.234-109.27,21.565,21.565,0,0,1,0,43.131Z" transform="translate(-8424.147 -3334.612)" fill="#ffc735" fill-rule="evenodd"/><path d="M9700.574,4456.724a21.594,21.594,0,1,1-21.594-21.6A21.6,21.6,0,0,1,9700.574,4456.724Z" transform="translate(-8612.856 -3399.548)" fill="#fd6234" fill-rule="evenodd"/><path d="M9569.018,4295.145a21.594,21.594,0,1,1-21.594-21.6A21.6,21.6,0,0,1,9569.018,4295.145Z" transform="translate(-8578.783 -3357.695)" fill="#fd6234" fill-rule="evenodd"/><path d="M9568.186,4056.108a21.594,21.594,0,1,1-21.594-21.6A21.6,21.6,0,0,1,9568.186,4056.108Z" transform="translate(-8578.566 -3295.779)" fill="#fd6234" fill-rule="evenodd"/><path d="M9568.186,3977.814a21.594,21.594,0,1,1-21.594-21.6A21.6,21.6,0,0,1,9568.186,3977.814Z" transform="translate(-8578.566 -3275.499)" fill="#fd6234" fill-rule="evenodd"/><path d="M9512.4,3656.323a21.594,21.594,0,1,1-21.594-21.6A21.6,21.6,0,0,1,9512.4,3656.323Z" transform="translate(-8564.116 -3192.227)" fill="#fd6234" fill-rule="evenodd"/><path d="M9760.523,4133.564a21.594,21.594,0,1,1-21.594-21.6A21.6,21.6,0,0,1,9760.523,4133.564Z" transform="translate(-8628.384 -3315.842)" fill="#fd6234" fill-rule="evenodd"/><path d="M8832.42,3171.22a36.047,36.047,0,1,1,36.039-36.048A36.043,36.043,0,0,1,8832.42,3171.22Zm-79.281-36.048a79.283,79.283,0,1,0,79.281-79.3A79.3,79.3,0,0,0,8753.139,3135.172Z" transform="translate(-8378.641 -3042.291)" fill="#ffc735" fill-rule="evenodd"/><path d="M8269.318,3293.241a21.609,21.609,0,0,1,21.594,21.625,36.016,36.016,0,0,0,35.988,36.041h143.961a36.016,36.016,0,0,0,35.992-36.041,21.594,21.594,0,1,1,43.188,0,79.235,79.235,0,0,1-79.18,79.291H8329.779a36.015,36.015,0,0,0-35.984,36.041v144.166a36.015,36.015,0,0,0,35.984,36.042,21.625,21.625,0,0,1,0,43.25,79.233,79.233,0,0,1-79.172-79.292V3430.2a79.106,79.106,0,0,1,23.43-56.307,79.134,79.134,0,0,1-26.312-59.025A21.609,21.609,0,0,1,8269.318,3293.241Z" transform="translate(-8247.725 -3103.776)" fill="#b4d51e" fill-rule="evenodd"/><path d="M8476.537,3194.842a87.923,87.923,0,0,1,83.672-60.681h83.59a21.55,21.55,0,1,1,0,43.1h-83.59a44.666,44.666,0,0,0-42.977,32.345,78.9,78.9,0,0,1,32.809,64.075,21.594,21.594,0,0,1-43.187,0,35.959,35.959,0,0,0-35.992-35.927H8326.9a35.958,35.958,0,0,0-35.988,35.927,21.594,21.594,0,0,1-43.187,0,79.108,79.108,0,0,1,79.176-79.039h143.961q2.865,0,5.676.2Z" transform="translate(-8247.725 -3062.571)" fill="#e5e0d5"/><path d="M8640.68,3295.087a36.035,36.035,0,1,1,36.035,36.047,21.628,21.628,0,0,0,0,43.256,79.3,79.3,0,1,0-79.281-79.3,21.623,21.623,0,1,0,43.246,0Z" transform="translate(-8338.308 -3083.712)" fill="#c84200" fill-rule="evenodd"/><path d="M8640.621,3315.674a21.594,21.594,0,1,0-21.594,21.6A21.6,21.6,0,0,0,8640.621,3315.674Z" transform="translate(-8338.308 -3103.992)" fill="#fd6234" fill-rule="evenodd"/><path d="M8290.912,3314.842a21.594,21.594,0,1,0-21.594,21.6A21.6,21.6,0,0,0,8290.912,3314.842Z" transform="translate(-8247.725 -3103.776)" fill="#c84200" fill-rule="evenodd"/><path d="M8611.48,3492.246a21.594,21.594,0,1,0-21.594,21.6A21.6,21.6,0,0,0,8611.48,3492.246Z" transform="translate(-8330.761 -3149.727)" fill="#c84200" fill-rule="evenodd"/><path d="M8611.48,3569.7a21.594,21.594,0,1,0-21.594,21.6A21.6,21.6,0,0,0,8611.48,3569.7Z" transform="translate(-8330.761 -3169.792)" fill="#c84200" fill-rule="evenodd"/><path d="M8864.6,3603.02a21.594,21.594,0,1,0-21.594,21.6A21.6,21.6,0,0,0,8864.6,3603.02Z" transform="translate(-8396.323 -3178.42)" fill="#c84200" fill-rule="evenodd"/><path d="M8944.537,3598.854a21.594,21.594,0,1,0-21.594,21.6A21.6,21.6,0,0,0,8944.537,3598.854Z" transform="translate(-8417.029 -3177.342)" fill="#c84200" fill-rule="evenodd"/><path d="M8944.537,3680.478a21.594,21.594,0,1,0-21.594,21.6A21.6,21.6,0,0,0,8944.537,3680.478Z" transform="translate(-8417.029 -3198.484)" fill="#c84200" fill-rule="evenodd"/><path d="M8547.367,4695.762a21.594,21.594,0,1,0-21.594,21.6A21.6,21.6,0,0,0,8547.367,4695.762Z" transform="translate(-8314.151 -3461.462)" fill="#c84200" fill-rule="evenodd"/><path d="M8634.795,4695.762a21.594,21.594,0,1,0-21.594,21.6A21.6,21.6,0,0,0,8634.795,4695.762Z" transform="translate(-8336.798 -3461.462)" fill="#fd6234" fill-rule="evenodd"/><path d="M8897.908,4694.1a21.594,21.594,0,1,0-21.594,21.6A21.6,21.6,0,0,0,8897.908,4694.1Z" transform="translate(-8404.951 -3461.032)" fill="#c84200" fill-rule="evenodd"/><path d="M8796.326,3155.761a21.594,21.594,0,1,0-21.594,21.6A21.6,21.6,0,0,0,8796.326,3155.761Z" transform="translate(-8378.641 -3062.571)" fill="#fd6234" fill-rule="evenodd"/><path d="M8874.594,3155.761a21.594,21.594,0,1,0-21.594,21.6A21.6,21.6,0,0,0,8874.594,3155.761Z" transform="translate(-8398.91 -3062.571)" fill="#fd6234" fill-rule="evenodd"/><path d="M8501.6,3252.843a36.048,36.048,0,0,1,0-72.095,21.629,21.629,0,0,0,0-43.257,79.3,79.3,0,0,0,0,158.607,21.628,21.628,0,0,0,0-43.256Z" transform="translate(-8293.017 -3063.434)" fill="#ffc735" fill-rule="evenodd"/><path d="M8376.73,3572.147a99.344,99.344,0,0,1,99.332,99.361,21.594,21.594,0,1,0,43.188,0,142.542,142.542,0,0,0-142.52-142.562,21.6,21.6,0,0,0,0,43.2Z" transform="translate(-8275.55 -3164.828)" fill="#fd6234" fill-rule="evenodd"/><path d="M8374.18,3742.943a21.594,21.594,0,1,0-21.594,21.6A21.6,21.6,0,0,0,8374.18,3742.943Z" transform="translate(-8269.293 -3214.663)" fill="#fd6234" fill-rule="evenodd"/><path d="M9646.453,4295.145a21.594,21.594,0,1,1-21.594-21.6A21.6,21.6,0,0,1,9646.453,4295.145Z" transform="translate(-8598.84 -3357.695)" fill="#c84200" fill-rule="evenodd"/><path d="M9723.891,4295.145a21.594,21.594,0,1,1-21.594-21.6A21.6,21.6,0,0,1,9723.891,4295.145Z" transform="translate(-8618.898 -3357.695)" fill="#c84200" fill-rule="evenodd"/><path d="M9247.617,4108.578a21.594,21.594,0,1,1-21.594-21.6A21.6,21.6,0,0,1,9247.617,4108.578Z" transform="translate(-8495.53 -3309.37)" fill="#fd6234" fill-rule="evenodd"/><path d="M9249.283,4458.391a21.594,21.594,0,1,1-21.594-21.6A21.6,21.6,0,0,1,9249.283,4458.391Z" transform="translate(-8495.962 -3399.981)" fill="#fd6234" fill-rule="evenodd"/><path d="M9558.559,3299.795a44.782,44.782,0,0,0,0,89.562c88.68,0,160.34,72.213,160.34,161a21.631,21.631,0,0,1-43.262,0c0-65.187-52.547-117.8-117.078-117.8-48.555,0-87.684-39.519-87.684-87.979s39.129-87.983,87.684-87.983a21.6,21.6,0,1,1,0,43.2Z" transform="translate(-8564.548 -3094.284)" fill="#ffc735" fill-rule="evenodd"/><path d="M9698.168,3645.544c0,65.573-52.414,118.348-116.605,118.348a21.649,21.649,0,0,0,0,43.3c88.461,0,159.793-72.583,159.793-161.646a21.594,21.594,0,1,0-43.187,0Z" transform="translate(-8587.627 -3189.422)" fill="#fd6234" fill-rule="evenodd"/><path d="M9768.074,3667.1a21.6,21.6,0,1,1,21.594-21.6A21.6,21.6,0,0,1,9768.074,3667.1Z" transform="translate(-8635.935 -3189.422)" fill="#c84200" fill-rule="evenodd"/><path d="M9371.736,3476.477a21.612,21.612,0,0,1,21.594,21.632v93.742a21.594,21.594,0,1,1-43.187,0v-93.742A21.612,21.612,0,0,1,9371.736,3476.477Z" transform="translate(-8533.273 -3151.239)" fill="#b4d51e" fill-rule="evenodd"/><path d="M8842.857,3304.866a145.561,145.561,0,0,1-145.539,145.585,21.621,21.621,0,0,0,0,43.242c104.254,0,188.77-84.541,188.77-188.827a21.615,21.615,0,1,0-43.23,0Z" transform="translate(-8358.577 -3101.187)" fill="#b4d51e" fill-rule="evenodd"/><path d="M9782.23,3367.313a21.615,21.615,0,0,1-21.633,21.6h-183.16a21.6,21.6,0,1,1,0-43.2H9760.6A21.616,21.616,0,0,1,9782.23,3367.313Z" transform="translate(-8586.545 -3117.367)" fill="#e5e0d5"/><path d="M8944.537,3304.847a21.594,21.594,0,1,0-21.594,21.6A21.6,21.6,0,0,0,8944.537,3304.847Z" transform="translate(-8417.029 -3101.187)" fill="#fd6234" fill-rule="evenodd"/><path d="M9790.006,3299.3a21.6,21.6,0,1,1,0-30.547A21.59,21.59,0,0,1,9790.006,3299.3Z" transform="translate(-8637.66 -3095.794)" fill="#c84200" fill-rule="evenodd"/><path d="M9591.834,3211.844a21.6,21.6,0,1,1,0-30.547A21.585,21.585,0,0,1,9591.834,3211.844Z" transform="translate(-8586.333 -3073.141)" fill="#c84200" fill-rule="evenodd"/><path d="M8247.725,3935.339a21.6,21.6,0,0,1,21.594-21.6h69.1a21.6,21.6,0,0,1,0,43.2h-69.1A21.6,21.6,0,0,1,8247.725,3935.339Z" transform="translate(-8247.725 -3264.499)" fill="#c84200" fill-rule="evenodd"/><path d="M9167.74,4689.958a21.576,21.576,0,0,1-21.594-21.559v-61.8a21.594,21.594,0,0,1,43.188,0v61.8A21.579,21.579,0,0,1,9167.74,4689.958Z" transform="translate(-8480.438 -3438.379)" fill="#b4d51e" fill-rule="evenodd"/><path d="M9315.172,4695.762a21.607,21.607,0,0,1,21.613-21.6h171.477a21.6,21.6,0,1,1,0,43.2H9336.785A21.606,21.606,0,0,1,9315.172,4695.762Z" transform="translate(-8524.217 -3461.462)" fill="#ffc735" fill-rule="evenodd"/><path d="M8247.725,3074.138a21.6,21.6,0,0,1,21.594-21.6h99.332a21.6,21.6,0,0,1,0,43.2h-99.332A21.6,21.6,0,0,1,8247.725,3074.138Z" transform="translate(-8247.725 -3041.43)" fill="#fd6234" fill-rule="evenodd"/><path d="M9575.732,4717.361a21.6,21.6,0,1,1,21.594-21.6A21.6,21.6,0,0,1,9575.732,4717.361Z" transform="translate(-8586.112 -3461.462)" fill="#fd6234" fill-rule="evenodd"/><path d="M9460.213,3222.269a66.124,66.124,0,0,0-66.117,66.137,21.561,21.561,0,1,1-43.121,0,109.256,109.256,0,0,1,109.238-109.27,21.566,21.566,0,0,1,0,43.133Z" transform="translate(-8533.491 -3074.221)" fill="#fd6234" fill-rule="evenodd"/><path d="M9357.3,3303.732a21.6,21.6,0,1,1,0,30.547A21.592,21.592,0,0,1,9357.3,3303.732Z" transform="translate(-8533.493 -3104.856)" fill="#c84200" fill-rule="evenodd"/><path d="M9929.605,4102.732a138.22,138.22,0,0,0,138.2-138.241,21.594,21.594,0,1,1,43.188,0c0,100.208-81.207,181.442-181.387,181.442a21.6,21.6,0,0,1,0-43.2Z" transform="translate(-8677.773 -3272.048)" fill="#b4d51e" fill-rule="evenodd"/><path d="M10160.533,3979.764a21.6,21.6,0,1,1,0-30.547A21.59,21.59,0,0,1,10160.533,3979.764Z" transform="translate(-8733.637 -3272.049)" fill="#c84200" fill-rule="evenodd"/><path d="M10242.957,3979.764a21.594,21.594,0,1,1,0-30.547A21.581,21.581,0,0,1,10242.957,3979.764Z" transform="translate(-8754.988 -3272.049)" fill="#c84200" fill-rule="evenodd"/><path d="M10370.2,4086.938c-103.531,0-187.449,83.951-187.449,187.508a21.631,21.631,0,1,1-43.262,0c0-127.455,103.285-230.777,230.711-230.777a21.635,21.635,0,0,1,0,43.27Z" transform="translate(-8737.73 -3298.152)" fill="#ffc735" fill-rule="evenodd"/><path d="M9846.287,3367.2a21.594,21.594,0,1,1-21.7-21.491A21.6,21.6,0,0,1,9846.287,3367.2Z" transform="translate(-8650.6 -3117.367)" fill="#fd6234" fill-rule="evenodd"/><path d="M10112.73,3071.53a21.594,21.594,0,1,1-21.7-21.491A21.6,21.6,0,0,1,10112.73,3071.53Z" transform="translate(-8719.616 -3040.782)" fill="#fd6234" fill-rule="evenodd"/><path d="M9846.287,3074.029a21.594,21.594,0,1,1-21.7-21.492A21.6,21.6,0,0,1,9846.287,3074.029Z" transform="translate(-8650.6 -3041.428)" fill="#fd6234" fill-rule="evenodd"/><path d="M9846.287,3151.486a21.594,21.594,0,1,1-21.7-21.491A21.6,21.6,0,0,1,9846.287,3151.486Z" transform="translate(-8650.6 -3061.492)" fill="#fd6234" fill-rule="evenodd"/><path d="M10398.363,3986.091h-85.727a21.6,21.6,0,1,1,0-43.2h85.727a21.6,21.6,0,1,1,0,43.2Z" transform="translate(-8776.986 -3272.048)" fill="#e5e0d5"/><path d="M10464.939,4065.269a21.6,21.6,0,1,1-21.6-21.6A21.6,21.6,0,0,1,10464.939,4065.269Z" transform="translate(-8810.842 -3298.152)" fill="#fd6234" fill-rule="evenodd"/><path d="M10106.594,3269.267a36.037,36.037,0,1,0-36.039,36.047,21.628,21.628,0,0,1,0,43.257,79.3,79.3,0,1,1,79.285-79.3,21.623,21.623,0,1,1-43.246,0Z" transform="translate(-8699.344 -3077.024)" fill="#c84200" fill-rule="evenodd"/><path d="M10269.295,3080.8a36.047,36.047,0,0,0,0,72.094,21.628,21.628,0,0,1,0,43.256,79.3,79.3,0,0,1,0-158.607,21.629,21.629,0,0,1,0,43.258Z" transform="translate(-8750.887 -3037.546)" fill="#e5e0d5"/><path d="M10114.4,3367.313a21.594,21.594,0,1,1-21.594-21.6A21.6,21.6,0,0,1,10114.4,3367.313Z" transform="translate(-8720.048 -3117.367)" fill="#fd6234" fill-rule="evenodd"/><path d="M10312.57,3214.894a21.6,21.6,0,1,1-21.6-21.6A21.6,21.6,0,0,1,10312.57,3214.894Z" transform="translate(-8771.377 -3077.887)" fill="#c84200" fill-rule="evenodd"/><path d="M10192.664,3367.313a21.594,21.594,0,1,1-21.594-21.6A21.6,21.6,0,0,1,10192.664,3367.313Z" transform="translate(-8740.318 -3117.367)" fill="#c84200" fill-rule="evenodd"/><path d="M10270.1,3367.313a21.594,21.594,0,1,1-21.594-21.6A21.6,21.6,0,0,1,10270.1,3367.313Z" transform="translate(-8760.377 -3117.367)" fill="#c84200" fill-rule="evenodd"/><path d="M10315.064,3135.771a21.594,21.594,0,1,1-21.594-21.6A21.6,21.6,0,0,1,10315.064,3135.771Z" transform="translate(-8772.022 -3057.393)" fill="#fd6234" fill-rule="evenodd"/><path d="M10392.5,3135.771a21.594,21.594,0,1,1-21.594-21.6A21.6,21.6,0,0,1,10392.5,3135.771Z" transform="translate(-8792.084 -3057.393)" fill="#fd6234" fill-rule="evenodd"/><path d="M10470.768,3135.771a21.594,21.594,0,1,1-21.594-21.6A21.6,21.6,0,0,1,10470.768,3135.771Z" transform="translate(-8812.354 -3057.393)" fill="#fd6234" fill-rule="evenodd"/><path d="M10371.738,3647.939a21.6,21.6,0,1,1,21.594-21.6A21.6,21.6,0,0,1,10371.738,3647.939Z" transform="translate(-8792.297 -3184.46)" fill="#c84200" fill-rule="evenodd"/></g></g></g></g></g></g></svg>